<svg width="134" height="119" viewBox="0 0 134 119" fill="none" xmlns="http://www.w3.org/2000/svg">
<path d="M106.379 92.137C78.2149 118.459 40.4912 125.859 22.1058 108.689C3.72046 91.5067 11.6523 56.2504 39.8168 29.9281C67.9813 3.60581 105.705 -3.79348 124.09 13.3756C142.476 30.5584 134.544 65.8284 106.379 92.137Z" fill="#D9F2FF"/>
<mask id="mask0_563_7025" style="mask-type:luminance" maskUnits="userSpaceOnUse" x="0" y="0" width="134" height="119">
<path d="M106.013 93.1922C77.8485 119.514 40.1248 126.914 21.7395 109.745C3.35411 92.5619 -13.008 44.5213 15.1565 18.199C43.321 -8.12333 105.339 -2.73829 123.724 14.4308C142.095 31.6136 134.178 66.8699 106.013 93.1922Z" fill="white"/>
</mask>
<g mask="url(#mask0_563_7025)">
<path d="M68.4357 118.062C110.118 104.333 133.972 75.8727 133.972 56.1275C133.972 36.3824 116.848 20.3643 95.7059 20.3643C85.1351 20.3643 75.3559 24.3654 68.4211 30.8329C61.5009 24.3654 51.7071 20.3643 41.1509 20.3643C20.0239 20.3643 2.88477 36.3687 2.88477 56.1275C2.89943 75.8727 26.7535 104.333 68.4357 118.062Z" fill="#2392F7"/>
<path d="M87.4368 60.552H76.5141V50.3438H60.3573V60.552H49.4346V75.6521H60.3573V85.8604H76.5141V75.6521H87.4368V60.552Z" fill="white"/>
</g>
</svg>
